<?xml version="1.0" standalone="no"?>
<!DOCTYPE svg PUBLIC "-//W3C//DTD SVG 20010904//EN"
 "http://www.w3.org/TR/2001/REC-SVG-20010904/DTD/svg10.dtd">
<svg version="1.0" xmlns="http://www.w3.org/2000/svg"
 width="172.000000pt" height="194.000000pt" viewBox="0 0 172.000000 194.000000"
 preserveAspectRatio="xMidYMid meet">

<g transform="translate(0.000000,194.000000) scale(0.100000,-0.100000)"
fill="#000000" stroke="none">
<path d="M800 1900 c0 -16 -7 -20 -30 -20 -29 0 -30 -2 -30 -45 0 -33 4 -45
15 -46 31 -3 35 -4 35 -14 0 -5 -39 -15 -87 -21 -48 -6 -107 -14 -130 -18 -46
-8 -58 5 -27 28 12 9 14 21 9 50 -7 33 -10 37 -31 32 -19 -5 -24 -2 -24 14 0
21 -9 24 -59 14 -24 -5 -31 -12 -31 -29 0 -14 -7 -25 -20 -28 -11 -3 -18 -11
-16 -19 2 -7 7 -25 10 -40 5 -20 13 -28 27 -28 16 0 20 -5 16 -20 -3 -11 1
-48 10 -83 9 -41 13 -94 10 -155 l-4 -92 -56 -58 c-219 -231 -256 -558 -92
-819 123 -194 324 -305 555 -305 258 -1 485 138 593 363 55 113 70 183 69 309
0 102 -22 192 -70 285 -33 66 -104 158 -152 196 -37 30 -38 33 -44 107 -4 48
-1 108 7 160 8 45 10 85 6 88 -19 11 -8 34 15 34 19 0 25 7 30 35 8 39 2 55
-20 55 -10 0 -13 7 -8 24 5 21 1 24 -36 30 -45 7 -60 2 -60 -20 0 -10 -7 -13
-24 -8 -20 5 -24 1 -30 -27 -10 -50 -7 -59 14 -59 12 0 20 -7 20 -16 0 -14 -7
-15 -37 -10 -21 3 -69 8 -108 12 -91 7 -115 12 -115 24 0 6 11 10 25 10 23 0
25 4 25 45 0 41 -2 45 -25 45 -18 0 -25 5 -25 20 0 17 -7 20 -50 20 -43 0 -50
-3 -50 -20z m82 -12 c2 -16 10 -23 25 -23 13 0 23 -4 23 -8 1 -55 0 -57 -25
-57 -20 0 -25 -5 -25 -25 0 -22 4 -25 38 -25 20 0 84 -7 142 -14 58 -8 106
-13 107 -13 1 1 4 14 8 28 5 21 2 27 -14 32 -15 4 -21 13 -21 32 0 24 3 27 25
23 18 -4 26 0 31 14 8 27 59 21 59 -7 0 -11 8 -23 18 -27 10 -4 17 -18 17 -33
0 -20 -5 -25 -24 -25 -18 0 -26 -7 -31 -27 -4 -17 -2 -29 4 -31 18 -6 12 -33
-6 -30 -11 2 -18 -3 -18 -12 0 -8 6 -14 13 -12 6 1 12 -5 12 -14 0 -18 -8 -18
-135 10 -143 32 -446 18 -627 -29 -22 -6 -28 -4 -28 9 0 9 5 15 11 14 6 -2 14
3 16 10 3 7 -4 12 -17 12 -19 0 -21 4 -16 26 9 35 -2 64 -24 64 -10 0 -20 9
-23 22 -7 26 -1 38 19 38 10 0 14 8 12 23 -2 17 3 23 21 25 14 2 30 -3 36 -11
6 -8 19 -16 30 -18 26 -5 32 -39 10 -55 -13 -9 -16 -20 -11 -40 6 -21 11 -25
29 -20 12 3 77 13 145 22 117 16 122 18 122 41 0 18 -5 23 -25 23 -21 0 -25 5
-25 30 0 25 4 30 25 30 20 0 25 5 25 25 0 22 4 25 34 25 28 0 35 -4 38 -22z
m-109 -254 c-17 -9 -40 -25 -50 -36 -17 -19 -17 -20 2 -35 34 -26 83 -43 123
-43 43 0 145 46 139 64 -5 16 -67 56 -86 56 -9 -1 -2 -7 14 -14 17 -7 36 -21
44 -30 12 -14 11 -19 -5 -31 -23 -18 -80 -35 -114 -35 -35 1 -113 37 -108 52
22 66 242 87 423 40 57 -15 71 -22 73 -40 3 -16 -1 -20 -12 -16 -11 4 -16 1
-16 -10 0 -9 6 -16 13 -16 10 0 17 -34 25 -133 13 -151 38 -245 83 -306 44
-62 25 -90 -39 -57 -45 23 -68 56 -126 177 -45 94 -66 126 -107 163 -45 41
-122 76 -165 76 -6 0 -11 8 -10 17 0 12 -7 19 -21 21 -17 3 -23 -2 -23 -16 0
-16 -10 -23 -50 -31 -28 -6 -52 -11 -54 -11 -2 0 -6 9 -9 21 -6 22 -28 22 -35
0 -2 -7 5 -15 17 -18 19 -5 16 -9 -24 -34 -54 -34 -96 -97 -126 -188 -12 -36
-30 -82 -40 -102 -25 -51 -83 -99 -119 -99 -38 0 -40 23 -5 70 39 52 65 152
75 280 5 63 10 125 10 137 0 13 6 22 13 20 6 -1 12 5 12 13 0 9 -7 14 -17 12
-13 -2 -18 4 -18 22 0 22 6 26 73 41 88 19 178 32 232 34 l40 1 -32 -16z m87
-154 c0 -5 -4 -10 -10 -10 -5 0 -10 5 -10 10 0 6 5 10 10 10 6 0 10 -4 10 -10z
m-150 -20 c0 -5 -5 -10 -11 -10 -5 0 -7 5 -4 10 3 6 8 10 11 10 2 0 4 -4 4
-10z m257 -35 c40 -17 125 -94 117 -107 -3 -5 3 -19 15 -31 11 -12 40 -63 65
-113 25 -52 58 -102 76 -118 18 -15 31 -28 29 -30 -2 -2 -35 -12 -72 -24 l-69
-20 -129 91 -128 92 -1 76 0 76 83 17 c45 10 86 19 92 20 15 4 -76 53 -120 65
-94 25 -188 3 -272 -66 -52 -42 -55 -44 -34 -14 66 93 231 134 348 86z m-182
-91 c45 -12 55 -19 55 -37 0 -12 3 -45 6 -73 l6 -51 -132 -103 -133 -104 -71
18 c-39 10 -74 20 -78 23 -4 2 8 18 28 35 39 34 76 100 94 167 8 29 29 62 63
98 57 60 52 59 162 27z m554 -68 c-3 -3 -21 2 -40 12 -26 13 -35 24 -37 47
l-3 30 42 -42 c24 -23 41 -45 38 -47z m-896 51 c-3 -13 -17 -31 -33 -40 -49
-29 -56 -19 -15 23 45 46 54 49 48 17z m925 -412 l72 -105 -14 -69 c-24 -115
-34 -127 -151 -182 -57 -27 -109 -49 -114 -49 -6 0 -33 33 -60 73 l-49 73 42
154 41 155 75 27 c41 15 77 27 80 27 3 0 38 -47 78 -104z m-874 61 c48 -14 89
-26 91 -28 12 -14 96 -292 91 -303 -12 -33 -102 -144 -116 -144 -8 0 -62 19
-119 42 l-105 42 -22 55 c-12 31 -27 79 -32 107 l-9 52 66 100 c36 55 66 101
66 101 0 0 40 -11 89 -24z m192 -24 c6 -4 11 -23 10 -42 -1 -29 -5 -36 -25
-38 -27 -4 -55 17 -33 25 10 4 10 8 1 19 -21 25 18 56 47 36z m124 -27 c0 -16
-6 -25 -15 -25 -9 0 -18 -7 -21 -15 -13 -32 -34 -16 -34 25 0 39 1 40 35 40
31 0 35 -3 35 -25z m68 0 c-4 -19 -1 -25 13 -25 11 0 19 -7 19 -15 0 -10 -10
-15 -30 -15 -28 0 -30 2 -30 40 0 30 4 40 16 40 12 0 15 -7 12 -25z m92 -15
c0 -29 -4 -40 -15 -40 -11 0 -15 11 -15 40 0 29 4 40 15 40 11 0 15 -11 15
-40z m110 30 c0 -5 -4 -10 -10 -10 -5 0 -10 -13 -10 -30 0 -20 -5 -30 -15 -30
-10 0 -15 10 -15 26 0 15 -8 33 -17 40 -16 12 -13 13 25 14 23 0 42 -4 42 -10z
m415 -122 c-10 -86 -31 -163 -62 -228 -37 -77 -42 -37 -8 63 14 42 28 98 31
124 7 58 23 103 36 103 6 0 7 -24 3 -62z m-1264 20 c6 -12 17 -49 24 -84 8
-34 25 -92 40 -128 14 -36 25 -76 23 -89 -3 -18 -10 -10 -35 39 -36 70 -59
145 -69 227 -7 60 -2 71 17 35z m855 -276 l51 -78 -58 -84 c-33 -47 -68 -91
-79 -99 -23 -15 -171 -27 -223 -17 -30 6 -48 22 -112 100 l-76 94 58 81 57 81
166 0 165 0 51 -78z m-35 -292 c5 0 9 -4 9 -8 0 -11 -84 -30 -165 -38 -61 -6
-203 10 -218 25 -16 16 27 21 103 12 67 -7 217 2 229 15 3 2 11 2 19 -1 7 -3
18 -5 23 -5z"/>
<path d="M832 1728 c-18 -18 -15 -36 7 -48 28 -14 55 13 41 41 -12 22 -30 25
-48 7z m36 -21 c2 -10 -3 -17 -12 -17 -18 0 -29 16 -21 31 9 14 29 6 33 -14z"/>
<path d="M943 1723 c-21 -8 -15 -43 6 -43 11 0 23 5 27 11 8 14 -17 38 -33 32z
m17 -23 c0 -5 -4 -10 -10 -10 -5 0 -10 5 -10 10 0 6 5 10 10 10 6 0 10 -4 10
-10z"/>
<path d="M730 1701 c0 -27 19 -36 37 -18 18 18 9 37 -18 37 -12 0 -19 -7 -19
-19z m31 -4 c-1 -12 -15 -9 -19 4 -3 6 1 10 8 8 6 -3 11 -8 11 -12z"/>
<path d="M1031 1711 c-17 -11 -7 -41 13 -41 22 0 30 20 15 36 -9 8 -19 10 -28
5z m19 -21 c0 -5 -4 -10 -10 -10 -5 0 -10 5 -10 10 0 6 5 10 10 10 6 0 10 -4
10 -10z"/>
<path d="M633 1694 c-3 -8 -1 -20 5 -26 15 -15 43 8 35 28 -7 19 -32 18 -40
-2z m27 -10 c0 -8 -5 -12 -10 -9 -6 4 -8 11 -5 16 9 14 15 11 15 -7z"/>
<path d="M560 1685 c-10 -12 -9 -16 5 -21 23 -9 40 10 22 25 -11 9 -17 8 -27
-4z"/>
<path d="M1102 1683 c2 -10 10 -18 18 -18 8 0 16 8 18 18 2 12 -3 17 -18 17
-15 0 -20 -5 -18 -17z"/>
<path d="M1175 1680 c-4 -6 -3 -16 3 -22 6 -6 12 -6 17 2 4 6 3 16 -3 22 -6 6
-12 6 -17 -2z"/>
<path d="M502 1666 c1 -10 8 -17 13 -17 15 1 12 24 -3 29 -9 3 -13 -2 -10 -12z"/>
<path d="M783 1608 c-46 -22 -25 -34 53 -30 59 3 75 1 69 -8 -5 -8 -27 -11
-66 -8 -38 3 -56 1 -50 -5 18 -18 95 -13 126 7 l29 19 -23 18 c-26 21 -101 25
-138 7z m117 -8 c11 -7 -4 -10 -50 -10 -46 0 -61 3 -50 10 8 5 31 10 50 10 19
0 42 -5 50 -10z"/>
<path d="M1059 1594 c-19 -53 -10 -68 50 -77 61 -8 66 -6 76 40 7 36 -2 43
-78 57 -34 6 -38 5 -48 -20z m54 -2 c-29 -3 -33 -7 -33 -33 0 -18 -4 -28 -10
-24 -9 5 -5 46 6 66 2 3 18 3 36 0 l33 -6 -32 -3z m62 -12 c3 -5 2 -10 -4 -10
-5 0 -13 5 -16 10 -3 6 -2 10 4 10 5 0 13 -4 16 -10z m-30 -10 c7 -12 -12 -12
-40 0 -18 8 -17 9 7 9 15 1 30 -3 33 -9z m-10 -20 c17 -7 15 -9 -12 -9 -18 -1
-33 4 -33 9 0 12 17 12 45 0z m27 -22 c-8 -8 -9 -4 -5 13 4 13 8 18 11 10 2
-7 -1 -18 -6 -23z"/>
<path d="M540 1601 c-21 -6 -25 -13 -25 -46 l0 -40 52 1 c76 2 81 6 74 51 -6
35 -9 38 -41 40 -19 1 -46 -2 -60 -6z m88 -38 c3 -32 3 -32 -35 -26 -50 8 -58
17 -10 11 31 -3 37 -1 37 14 0 24 -23 32 -57 20 -23 -7 -28 -15 -26 -37 2 -20
-1 -25 -8 -18 -6 6 -9 21 -7 34 3 25 34 39 78 36 20 -2 26 -8 28 -34z m-28 7
c0 -5 -15 -10 -32 -9 -28 0 -30 2 -13 9 28 12 45 12 45 0z"/>
<path d="M1015 1590 c-4 -6 -3 -16 3 -22 6 -6 12 -6 17 2 4 6 3 16 -3 22 -6 6
-12 6 -17 -2z"/>
<path d="M667 1584 c-8 -8 1 -24 14 -24 5 0 9 7 9 15 0 15 -12 20 -23 9z"/>
<path d="M767 1483 c-12 -11 -8 -23 8 -23 8 0 15 7 15 15 0 16 -12 20 -23 8z"/>
<path d="M915 1481 c-7 -12 12 -24 25 -16 11 7 4 25 -10 25 -5 0 -11 -4 -15
-9z"/>
<path d="M985 1471 c-8 -15 3 -31 21 -31 9 0 14 7 12 17 -4 20 -24 28 -33 14z
m25 -11 c0 -5 -5 -10 -11 -10 -5 0 -7 5 -4 10 3 6 8 10 11 10 2 0 4 -4 4 -10z"/>
<path d="M530 1421 c-24 -23 -30 -38 -30 -70 0 -50 18 -54 54 -10 27 31 36 92
16 104 -6 4 -24 -7 -40 -24z m23 -48 c-3 -7 -6 -13 -8 -13 -2 0 -5 6 -8 13 -3
8 1 14 8 14 7 0 11 -6 8 -14z"/>
<path d="M1120 1415 c0 -44 47 -102 75 -91 26 10 13 74 -20 104 -38 32 -55 29
-55 -13z"/>
<path d="M1197 1444 c-8 -8 1 -24 14 -24 5 0 9 7 9 15 0 15 -12 20 -23 9z"/>
<path d="M480 1425 c0 -9 5 -15 11 -13 6 2 11 8 11 13 0 5 -5 11 -11 13 -6 2
-11 -4 -11 -13z"/>
<path d="M1080 1406 c0 -9 7 -16 16 -16 17 0 14 22 -4 28 -7 2 -12 -3 -12 -12z"/>
<path d="M595 1401 c-7 -12 12 -24 25 -16 11 7 4 25 -10 25 -5 0 -11 -4 -15
-9z"/>
<path d="M1190 1280 c0 -11 7 -20 15 -20 8 0 15 9 15 20 0 11 -7 20 -15 20 -8
0 -15 -9 -15 -20z"/>
<path d="M483 1278 c2 -7 10 -13 17 -13 7 0 15 6 18 13 2 7 -5 12 -18 12 -13
0 -20 -5 -17 -12z"/>
<path d="M1215 1221 c-7 -12 12 -24 25 -16 11 7 4 25 -10 25 -5 0 -11 -4 -15
-9z"/>
<path d="M466 1213 c-11 -11 -6 -23 9 -23 8 0 15 4 15 9 0 13 -16 22 -24 14z"/>
<path d="M1246 1162 c-3 -6 -1 -14 5 -17 15 -10 25 3 12 16 -7 7 -13 7 -17 1z"/>
<path d="M440 1145 c0 -9 5 -15 11 -13 6 2 11 8 11 13 0 5 -5 11 -11 13 -6 2
-11 -4 -11 -13z"/>
<path d="M1050 1346 c0 -2 8 -10 18 -17 15 -13 16 -12 3 4 -13 16 -21 21 -21
13z"/>
<path d="M700 495 c-9 -10 -9 -15 -1 -15 6 0 11 -11 11 -25 0 -14 5 -25 10
-25 6 0 10 18 10 40 0 42 -9 50 -30 25z"/>
<path d="M774 496 c-8 -21 3 -36 27 -36 10 0 19 -5 19 -11 0 -6 -9 -9 -20 -6
-11 3 -20 1 -20 -5 0 -5 12 -8 28 -6 24 3 27 7 27 38 0 31 -3 35 -28 38 -17 2
-29 -2 -33 -12z m46 -11 c0 -8 -4 -15 -9 -15 -13 0 -22 16 -14 24 11 11 23 6
23 -9z"/>
<path d="M875 499 c-4 -6 -4 -13 0 -17 4 -4 10 -1 12 6 6 16 23 16 23 -1 0 -7
-9 -18 -20 -25 -31 -19 -24 -32 18 -31 30 1 33 2 13 8 -21 6 -22 8 -7 20 25
21 21 51 -8 51 -14 0 -28 -5 -31 -11z"/>
<path d="M964 496 c-3 -8 -4 -25 -2 -38 2 -18 9 -23 33 -23 28 0 30 3 30 35 0
31 -3 35 -28 38 -17 2 -29 -2 -33 -12z m46 -26 c0 -10 -5 -22 -10 -25 -13 -8
-24 20 -16 41 8 20 26 9 26 -16z"/>
<path d="M20 805 c0 -118 58 -293 135 -409 128 -193 343 -332 568 -367 41 -7
120 -9 183 -6 374 18 690 293 769 669 8 38 15 89 15 114 l0 44 -74 0 c-82 0
-86 -3 -86 -67 0 -142 -114 -350 -251 -458 -128 -100 -266 -148 -429 -148
-112 1 -196 20 -295 69 -215 105 -348 299 -380 557 l-6 47 -75 0 -74 0 0 -45z
m112 -30 c4 -18 1 -25 -9 -25 -10 0 -8 -6 8 -19 19 -15 21 -21 11 -34 -10 -12
-10 -16 3 -21 26 -9 17 -31 -18 -44 -47 -17 -50 -16 -45 18 3 17 1 30 -3 30
-17 0 -19 35 -3 47 16 12 17 13 1 13 -9 0 -17 4 -17 9 0 5 -3 16 -6 24 -4 11
2 17 18 20 48 9 56 7 60 -18z m1462 3 c-5 -9 -2 -9 9 1 13 10 17 10 17 1 0 -9
3 -10 13 -1 8 6 16 8 19 5 8 -8 -12 -89 -23 -92 -6 -3 -5 -9 2 -18 7 -9 8 -18
2 -26 -5 -7 -15 -33 -22 -57 -12 -41 -14 -43 -44 -37 -30 5 -31 5 -13 -9 11
-8 24 -15 29 -15 4 0 5 -5 2 -10 -4 -6 -16 -8 -28 -4 -12 4 -30 7 -39 6 -22
-1 -22 1 -1 41 9 18 18 35 19 40 1 4 3 10 4 15 1 4 2 11 1 16 -1 4 15 5 35 2
24 -5 34 -4 29 3 -3 6 -15 11 -25 11 -25 0 -35 17 -20 35 7 8 9 15 6 15 -4 0
-4 6 1 13 4 6 6 22 4 34 -3 26 5 43 20 43 6 0 7 -6 3 -12z m-1420 -164 c3 -9
4 -20 0 -25 -3 -5 0 -9 7 -9 6 0 9 -8 6 -20 -3 -13 0 -20 9 -20 8 0 14 -5 14
-10 0 -6 18 -38 40 -71 22 -33 40 -63 40 -66 0 -8 -44 -42 -56 -43 -23 0 -25
33 -3 57 24 24 12 31 -21 11 -27 -17 -40 1 -12 19 27 19 28 29 2 29 -11 0 -20
-6 -20 -13 0 -19 -17 -16 -24 4 -5 11 1 24 16 36 22 18 22 18 1 8 -32 -16 -37
-14 -50 19 -9 25 -9 32 5 40 15 8 14 9 -5 10 -33 0 -39 21 -13 42 27 22 56 23
64 2z m1395 -120 c3 -4 0 -9 -6 -11 -7 -3 -13 -11 -13 -19 0 -19 -6 -18 -40 8
-16 11 -27 25 -23 31 6 10 71 3 82 -9z m-52 -42 c23 -14 23 -17 -13 -70 -4 -6
-64 32 -64 40 0 5 7 11 15 14 8 4 12 10 9 15 -3 5 -2 14 1 19 6 10 10 9 52
-18z m-67 -66 c6 -8 18 -12 26 -9 16 6 18 -5 4 -27 -8 -12 -13 -11 -33 8 -13
12 -27 22 -33 22 -5 0 4 -11 21 -24 28 -22 28 -24 11 -41 -17 -17 -19 -17 -41
11 -21 27 -22 30 -6 51 19 26 34 29 51 9z m-1140 -15 c0 -15 -51 -51 -63 -44
-6 4 2 16 19 30 31 24 44 29 44 14z m46 -46 c3 -8 -1 -22 -10 -30 -23 -23 -20
-29 6 -11 24 17 48 21 48 9 0 -5 -10 -24 -22 -43 -17 -27 -23 -31 -26 -17 -2
9 -8 17 -13 17 -11 0 -49 32 -49 42 0 14 34 48 48 48 7 0 15 -7 18 -15z m1044
-10 c22 -24 23 -26 7 -42 -16 -16 -19 -16 -44 9 -22 23 -24 29 -13 42 17 21
23 20 50 -9z m-980 -51 c0 -8 5 -12 11 -8 6 3 23 -2 37 -13 15 -11 35 -22 45
-26 22 -8 22 -24 -2 -39 -15 -9 -17 -15 -9 -25 17 -20 -9 -16 -53 9 l-38 21
22 31 22 31 -29 -22 c-16 -13 -33 -23 -37 -23 -12 0 -11 24 3 55 13 28 28 33
28 9z m898 4 c8 -8 15 -8 26 1 10 8 16 9 21 1 3 -5 -1 -13 -9 -16 -9 -3 -16
-15 -16 -25 0 -28 -27 -35 -50 -14 -11 10 -20 15 -20 10 0 -4 8 -14 18 -21 16
-12 16 -14 -3 -28 -15 -11 -23 -12 -34 -3 -11 9 -13 9 -8 1 4 -7 -1 -18 -9
-25 -14 -12 -19 -11 -32 9 -18 27 -37 30 -22 3 24 -45 0 -58 -25 -13 l-15 27
6 -37 c3 -21 4 -38 0 -38 -7 0 -36 55 -36 68 0 5 26 21 58 35 70 33 95 48 105
65 10 15 29 16 45 0z m-723 -77 c-7 -12 28 -36 55 -37 14 -1 31 -2 38 -3 20
-2 14 -42 -8 -48 -11 -3 -20 -9 -20 -14 0 -5 -5 -9 -11 -9 -6 0 -8 12 -5 33 6
32 6 32 -5 5 -11 -28 -42 -38 -54 -18 -4 6 -10 8 -14 5 -5 -2 -17 2 -27 9 -18
14 -18 15 -1 33 9 11 14 22 11 26 -9 9 19 35 33 30 7 -3 11 -8 8 -12z m505
-68 c0 -7 3 -12 8 -10 4 1 9 -2 12 -8 3 -5 -5 -11 -17 -13 -15 -2 -23 2 -23
12 0 10 -6 13 -15 10 -8 -4 -15 -15 -15 -25 0 -10 -4 -19 -10 -19 -5 0 -10 5
-10 12 0 6 -6 3 -14 -7 -15 -21 -51 -14 -43 9 3 7 1 18 -5 24 -15 15 6 39 35
40 32 2 55 7 64 16 9 8 33 -22 33 -41z m-349 -5 l2 -23 4 23 c4 21 23 32 23
13 0 -4 14 -7 30 -5 26 3 30 0 30 -21 0 -14 5 -25 10 -25 6 0 10 11 10 25 0
31 19 33 21 3 l2 -23 4 23 c2 12 11 22 19 22 8 0 17 1 21 3 3 1 7 -8 8 -20 1
-13 -2 -23 -7 -23 -4 0 -8 -5 -8 -11 0 -5 5 -7 10 -4 6 3 10 1 10 -5 0 -17
-29 -23 -45 -10 -10 9 -15 9 -15 1 0 -11 -47 -10 -67 2 -6 4 -14 1 -17 -5 -4
-10 -8 -10 -11 -2 -3 7 -14 10 -23 8 -9 -2 -29 -1 -44 3 -26 8 -26 9 -13 41
16 37 44 43 46 10z"/>
<path d="M1595 740 c3 -5 14 -10 23 -10 15 0 15 2 2 10 -20 13 -33 13 -25 0z"/>
<path d="M130 600 c-9 -6 -10 -10 -3 -10 6 0 15 5 18 10 8 12 4 12 -15 0z"/>
<path d="M465 210 c4 -7 2 -16 -5 -20 -7 -4 -8 -10 -3 -13 4 -3 16 1 26 8 18
13 18 14 -3 25 -18 9 -21 9 -15 0z"/>
<path d="M1290 251 c0 -5 7 -15 17 -22 15 -13 15 -12 4 9 -12 23 -21 28 -21
13z"/>
<path d="M578 146 c-10 -7 -15 -16 -11 -19 11 -12 21 -7 26 13 3 11 4 20 4 20
-1 0 -10 -7 -19 -14z"/>
<path d="M1005 121 c-3 -5 -1 -12 5 -16 5 -3 10 1 10 9 0 18 -6 21 -15 7z"/>
</g>
</svg>
